{"glyphs":{":":{"x_min":0,"x_max":267,"ha":267,"o":"m 41 135 b 41 91 76 56 120 56 b 164 56 200 91 200 135 b 200 179 164 215 120 215 b 76 215 41 179 41 135 z m 91 375 b 91 331 126 296 170 296 b 214 296 250 331 250 375 b 250 419 214 455 170 455 b 126 455 91 419 91 375 z"},"$":{"x_min":0,"x_max":403,"ha":403,"o":"m 110 -27 l 137 -27 l 166 107 b 270 109 346 160 346 255 b 346 337 284 375 233 408 l 269 569 b 291 560 301 540 301 525 b 301 504 294 483 277 473 b 290 457 300 450 316 450 b 346 450 364 480 364 526 b 364 582 320 602 277 609 l 302 718 l 244 718 l 225 612 b 151 609 71 555 71 481 b 71 417 129 384 177 344 l 141 148 b 119 158 99 180 99 209 b 99 249 111 278 139 283 b 139 296 124 308 96 308 b 57 308 24 274 24 222 b 24 143 73 113 134 108 z m 241 234 b 241 190 223 150 175 144 l 212 310 b 229 289 241 265 241 234 z m 166 500 b 166 530 179 566 218 574 l 194 439 b 177 456 166 475 166 500 z"},"?":{"x_min":0,"x_max":441,"ha":441,"o":"m 425 579 b 425 646 402 700 265 700 b 114 700 55 607 55 539 b 55 483 92 455 131 455 b 159 455 187 469 204 497 b 176 505 166 540 166 563 b 166 613 208 646 246 646 b 275 646 301 626 301 577 b 301 425 119 373 119 232 l 185 232 b 234 381 425 386 425 579 z m 207 80 b 207 124 172 159 128 159 b 84 159 48 124 48 80 b 48 36 84 0 128 0 b 172 0 207 36 207 80 z"},"<":{"x_min":0,"x_max":359,"ha":359,"o":"m 336 429 l 29 279 l 20 238 l 267 101 l 279 158 l 85 254 l 326 374 z"},"'":{"x_min":0,"x_max":197,"ha":197,"o":"m 15 561 l 90 561 l 181 750 l 76 750 z"},"=":{"x_min":0,"x_max":515,"ha":515,"o":"m 468 428 l 100 428 l 76 316 l 445 316 z m 424 213 l 56 213 l 32 101 l 401 101 z"},"a":{"x_min":0,"x_max":503,"ha":503,"o":"m 317 500 l 311 474 b 293 489 268 499 244 499 b 44 499 -18 293 -18 121 b -18 62 10 -6 106 -6 b 167 -6 212 35 242 76 b 255 24 299 0 364 0 b 442 0 555 133 601 179 l 567 179 b 527 147 475 91 435 91 b 395 91 385 107 385 129 b 385 138 387 149 389 160 l 461 500 z m 252 443 b 266 443 285 439 301 425 l 245 160 b 242 148 240 137 239 127 b 220 99 198 77 175 77 b 150 77 117 88 117 148 b 117 284 177 443 252 443 z"},"L":{"x_min":0,"x_max":392,"ha":392,"o":"m 397 738 b 384 739 371 740 357 740 b 190 740 6 613 6 480 b 6 408 44 383 113 383 b 112 392 99 400 99 451 b 99 558 152 633 239 669 l 90 -24 b 98 -23 105 -23 113 -23 b 290 -23 416 -250 559 -250 b 613 -250 653 -189 663 -93 b 634 -105 606 -109 579 -109 b 451 -109 347 -3 243 20 z"},"3":{"x_min":0,"x_max":514,"ha":514,"o":"m 205 257 b 197 293 169 308 124 308 b 47 308 6 250 6 156 b 6 12 147 -5 227 -5 b 376 -5 485 134 485 255 b 485 326 448 390 361 417 b 453 463 497 536 497 602 b 497 681 435 749 321 749 b 170 749 105 670 105 602 b 105 544 136 512 176 512 b 200 512 227 523 253 546 b 225 554 215 591 215 614 b 215 664 239 695 306 695 b 348 695 369 661 369 616 b 369 546 315 449 199 418 b 291 387 328 308 328 232 b 328 143 278 58 206 58 b 153 58 117 72 117 139 b 117 189 124 250 205 257 z"},";":{"x_min":0,"x_max":276,"ha":276,"o":"m 94 331 b 94 287 129 252 173 252 b 217 252 253 287 253 331 b 253 375 217 411 173 411 b 129 411 94 375 94 331 z m 46 91 b 46 58 67 35 93 18 b 102 12 106 5 106 -2 b 106 -39 54 -57 54 -93 b 54 -99 56 -105 63 -110 b 145 -53 193 35 193 95 b 193 139 169 171 125 171 b 81 171 46 135 46 91 z"},"J":{"x_min":0,"x_max":536,"ha":536,"o":"m 538 750 b 371 750 187 623 187 490 b 187 418 225 393 294 393 b 293 402 280 410 280 461 b 280 568 334 644 421 680 l 264 -34 b 241 -137 214 -157 169 -157 b 140 -157 101 -139 101 -87 b 101 -50 125 -13 171 -13 b 191 -13 206 -18 231 -39 b 235 -24 237 -10 237 1 b 237 65 179 68 139 68 b 60 68 17 2 17 -66 b 17 -149 70 -207 165 -207 b 329 -207 396 -113 428 40 l 578 750 z"},"V":{"x_min":0,"x_max":615,"ha":615,"o":"m 397 748 b 384 749 371 750 357 750 b 190 750 6 623 6 490 b 6 418 44 393 113 393 b 112 402 99 410 99 461 b 99 571 155 649 264 683 l 264 0 l 408 0 l 686 745 l 616 745 l 406 133 z"},"\"":{"x_min":0,"x_max":420,"ha":420,"o":"m 62 561 l 137 561 l 228 750 l 123 750 z m 219 561 l 294 561 l 385 750 l 280 750 z"},"7":{"x_min":0,"x_max":464,"ha":464,"o":"m 184 750 b 86 750 48 715 48 650 b 48 633 51 613 56 592 b 101 642 177 663 264 663 b 291 663 319 661 348 657 b 180 463 33 288 33 125 b 33 23 76 0 136 0 b 178 0 216 7 228 39 b 192 69 179 96 179 136 b 179 172 189 215 211 265 b 239 330 460 673 512 750 z"},"S":{"x_min":0,"x_max":570,"ha":570,"o":"m 544 630 b 544 742 429 750 376 750 b 257 750 138 669 138 564 b 138 415 354 374 354 186 b 354 112 323 43 244 43 b 197 43 145 72 145 139 b 145 208 181 242 262 249 b 254 285 226 300 181 300 b 104 300 34 250 34 156 b 34 12 175 -5 255 -5 b 416 -5 520 86 520 227 b 520 450 295 459 295 616 b 295 671 333 703 388 703 b 441 703 461 671 461 636 b 461 603 443 566 416 550 b 429 535 445 529 461 529 b 513 529 544 573 544 630 z"},"}":{"x_min":0,"x_max":352,"ha":352,"o":"m 30 -249 l 73 -249 b 192 -249 233 -124 233 -48 b 233 3 226 56 226 111 b 226 158 229 222 293 222 b 302 222 312 221 324 219 l 336 276 b 323 274 313 273 304 273 b 272 273 263 286 263 304 b 263 310 264 318 266 326 b 292 440 383 547 383 641 b 383 664 378 686 364 708 b 338 749 310 750 250 750 l 241 750 l 232 705 b 294 705 317 673 317 625 b 317 525 198 372 198 283 b 198 267 203 255 210 247 b 186 227 172 194 170 136 l 176 -35 b 175 -89 166 -133 130 -173 b 108 -197 80 -199 39 -199 z"},"Z":{"x_min":0,"x_max":530,"ha":530,"o":"m 404 78 b 404 60 380 56 349 56 b 325 56 227 57 204 58 l 552 750 l 209 750 b 129 750 92 708 92 657 b 92 625 111 599 139 599 b 171 599 202 612 202 659 b 202 676 194 688 185 688 b 185 706 236 710 267 710 b 290 710 344 709 367 708 l 11 0 l 372 0 b 452 0 497 58 497 109 b 497 141 478 167 450 167 b 418 167 386 153 386 106 b 386 89 395 78 404 78 z"},"x":{"x_min":0,"x_max":365,"ha":365,"o":"m -34 58 b 5 89 49 129 84 158 l 85 155 b 113 24 129 0 217 0 b 295 0 408 133 454 179 l 420 179 b 380 147 328 91 288 91 b 243 91 238 114 229 155 l 216 213 b 272 270 362 373 362 440 b 362 483 343 524 306 524 b 270 524 238 509 238 475 b 238 444 250 419 285 419 b 290 419 296 420 302 421 b 300 372 253 309 205 265 l 154 500 l 10 500 l 75 201 b 42 167 -22 109 -53 88 z"},")":{"x_min":0,"x_max":413,"ha":413,"o":"m -16 -250 b 182 -155 310 138 310 400 b 310 536 275 664 197 750 l 164 721 b 215 646 237 540 237 427 b 237 166 120 -136 -29 -210 z"},"&":{"x_min":0,"x_max":682,"ha":682,"o":"m 676 413 b 659 383 618 370 581 370 b 556 370 533 375 505 375 b 402 375 332 316 312 234 l 319 233 b 338 263 369 278 413 278 b 436 278 459 274 484 273 b 453 126 373 84 303 84 b 239 84 186 144 186 217 b 186 286 233 366 360 418 b 266 460 228 525 228 583 b 228 650 277 706 350 706 b 414 706 416 648 416 632 b 416 607 397 557 372 550 b 391 528 413 524 429 524 b 480 524 499 563 499 616 b 499 713 408 750 315 750 b 173 750 93 660 93 569 b 93 512 124 454 192 417 b 71 392 11 292 11 196 b 11 93 80 -6 218 -6 b 316 -6 454 0 530 274 b 612 288 682 358 682 413 z"},"_":{"x_min":0,"x_max":444,"ha":444,"o":"m 404 79 l 54 79 l 36 0 l 387 0 z"},"v":{"x_min":0,"x_max":416,"ha":416,"o":"m 328 520 b 295 520 271 492 271 471 b 271 443 284 415 313 415 b 319 415 328 417 334 419 b 334 310 267 91 169 91 b 140 91 131 104 131 123 b 131 134 133 146 136 160 l 208 500 l 64 500 l -8 160 b -12 141 -13 124 -13 109 b -13 34 34 0 111 0 b 313 0 392 274 392 430 b 392 482 371 520 328 520 z"},"O":{"x_min":0,"x_max":658,"ha":658,"o":"m 388 656 b 371 661 356 664 341 664 b 193 664 127 404 127 217 b 127 51 204 -9 332 -9 b 511 -9 631 284 631 479 b 631 653 555 750 357 750 b 190 750 6 623 6 490 b 6 418 44 393 113 393 b 112 402 99 410 99 461 b 99 613 207 704 369 704 b 495 704 515 610 515 500 b 515 313 418 75 332 75 b 277 75 253 151 253 237 b 253 401 306 548 388 656 z"},"(":{"x_min":0,"x_max":437,"ha":437,"o":"m 464 750 b 266 655 138 361 138 100 b 138 -36 173 -164 251 -250 l 284 -221 b 233 -146 211 -41 211 73 b 211 333 328 636 477 710 z"},"C":{"x_min":0,"x_max":497,"ha":497,"o":"m 500 180 b 463 116 390 84 313 84 b 205 84 181 140 181 271 b 181 449 260 703 383 703 b 447 703 452 648 452 632 b 452 607 433 557 408 550 b 427 528 449 524 465 524 b 516 524 535 563 535 616 b 535 713 454 750 361 750 b 95 750 24 467 24 249 b 24 44 141 -6 243 -6 b 337 -6 470 24 523 170 z"},"W":{"x_min":0,"x_max":970,"ha":970,"o":"m 397 748 b 384 749 371 750 357 750 b 190 750 6 623 6 490 b 6 418 44 393 113 393 b 112 402 99 410 99 461 b 99 571 155 649 264 683 l 264 0 l 408 0 l 610 509 l 610 0 l 754 0 l 1032 745 l 962 745 l 743 133 l 743 745 l 616 745 l 406 133 z"},"A":{"x_min":0,"x_max":668,"ha":668,"o":"m 535 0 l 692 736 b 668 746 636 751 612 751 b 494 751 364 614 263 452 b 241 454 221 455 204 455 b 101 455 9 401 9 340 b 9 295 37 277 66 277 b 109 277 127 295 127 316 b 127 330 119 347 114 347 b 128 383 171 395 231 399 b 143 247 84 84 84 -1 b 84 -107 149 -109 218 -113 b 217 -104 204 -108 204 -57 b 204 47 258 237 333 399 b 376 396 417 385 468 363 l 391 0 z m 477 407 b 438 422 395 433 353 441 b 409 553 474 646 535 679 z"},"f":{"x_min":0,"x_max":271,"ha":271,"o":"m 388 600 b 390 612 391 625 391 641 b 391 706 334 749 273 749 b 207 749 121 722 91 579 l -30 8 b -125 -21 -202 -50 -202 -142 b -202 -207 -145 -250 -84 -250 b -19 -250 64 -223 95 -80 l 210 460 l 284 460 l 291 500 l 218 500 l 235 579 b 249 646 283 661 305 661 b 325 661 343 650 343 627 b 343 618 342 610 341 600 z m -147 -128 b -147 -74 -100 -46 -37 -25 l -50 -83 b -63 -142 -86 -161 -107 -161 b -129 -161 -147 -142 -147 -128 z"},"Q":{"x_min":0,"x_max":658,"ha":658,"o":"m 378 656 b 362 661 347 664 333 664 b 193 664 117 408 117 222 b 117 53 203 -9 332 -9 b 348 -9 363 -6 378 -2 b 395 -58 420 -113 503 -113 b 546 -113 580 -96 606 -27 b 598 -28 591 -29 584 -29 b 523 -29 492 7 463 48 b 567 143 631 337 631 479 b 631 653 555 750 357 750 b 190 750 6 623 6 490 b 6 418 44 393 113 393 b 112 402 99 410 99 461 b 99 613 207 704 369 704 b 495 704 515 610 515 500 b 515 367 461 208 398 127 b 377 145 350 157 314 157 b 296 157 276 154 254 148 b 247 174 243 205 243 238 b 243 402 296 548 378 656 z m 289 120 b 319 120 336 104 348 82 b 339 77 330 75 322 75 b 296 75 278 91 265 117 b 274 119 282 120 289 120 z"},"w":{"x_min":0,"x_max":671,"ha":671,"o":"m 592 520 b 559 520 535 492 535 471 b 535 443 548 415 577 415 b 583 415 592 417 598 419 b 598 310 531 91 433 91 b 404 91 395 104 395 123 b 395 134 397 146 400 160 l 472 500 l 328 500 l 256 160 b 253 148 251 136 251 126 b 227 106 202 91 181 91 b 141 91 131 107 131 129 b 131 138 133 149 135 160 l 207 500 l 63 500 l -9 160 b -13 141 -15 124 -15 109 b -15 34 33 0 110 0 b 152 0 206 40 253 83 b 263 26 307 0 375 0 b 577 0 656 274 656 430 b 656 482 635 520 592 520 z"},"-":{"x_min":0,"x_max":290,"ha":290,"o":"m 237 301 l 37 301 l 19 222 l 220 222 z"},"E":{"x_min":0,"x_max":459,"ha":459,"o":"m 461 180 b 424 116 380 84 303 84 b 239 84 186 144 186 217 b 186 286 233 366 360 418 b 266 460 228 525 228 583 b 228 650 277 706 350 706 b 414 706 416 648 416 632 b 416 607 397 557 372 550 b 391 528 413 524 429 524 b 480 524 499 563 499 616 b 499 713 408 750 315 750 b 173 750 93 660 93 569 b 93 512 124 454 192 417 b 71 392 11 292 11 196 b 11 93 80 -6 218 -6 b 312 -6 431 24 484 170 z"},"s":{"x_min":0,"x_max":406,"ha":406,"o":"m 143 490 b 126 414 103 325 67 260 b 27 257 -9 211 -9 131 b -9 33 47 0 162 0 b 255 0 312 38 338 93 b 378 127 418 162 446 184 l 420 218 b 408 204 383 178 355 153 b 356 160 356 167 356 174 b 356 291 288 341 288 506 l 288 520 z m 144 199 b 144 229 135 247 111 255 b 133 305 147 369 163 418 b 165 293 210 240 210 178 b 210 101 161 59 127 59 b 74 59 42 85 42 144 b 54 138 66 135 78 135 b 113 135 144 161 144 199 z"},">":{"x_min":0,"x_max":344,"ha":344,"o":"m 75 374 l 269 254 l 29 158 l 15 101 l 319 225 l 330 279 l 84 429 z"},"l":{"x_min":0,"x_max":286,"ha":286,"o":"m 111 680 l 0 160 b -4 141 -6 124 -6 109 b -6 34 41 0 118 0 b 196 0 309 133 355 179 l 321 179 b 281 147 229 91 189 91 b 150 91 139 106 139 128 b 139 136 141 145 144 160 l 259 700 z"},"8":{"x_min":0,"x_max":499,"ha":499,"o":"m 208 58 b 161 58 137 101 137 158 b 137 231 177 328 260 383 b 304 345 323 288 323 232 b 323 143 276 58 208 58 z m 203 -5 b 364 -5 480 139 480 261 b 480 329 444 391 359 417 b 452 462 499 537 499 604 b 499 682 436 749 310 749 b 178 749 87 649 87 553 b 87 501 113 451 172 417 b 50 383 -8 287 -8 196 b -8 93 66 -5 203 -5 z m 271 451 b 235 481 218 527 218 572 b 218 640 255 704 320 704 b 354 704 372 675 372 632 b 372 574 338 495 271 451 z"},"\\":{"x_min":0,"x_max":362,"ha":362,"o":"m 254 -250 l 326 -250 l 114 750 l 42 750 z"},"e":{"x_min":0,"x_max":355,"ha":355,"o":"m 117 158 b 117 170 118 185 120 201 b 215 213 346 283 346 405 b 346 475 300 509 218 509 b 36 509 -18 286 -18 159 b -18 73 34 0 130 0 b 259 0 355 101 412 204 l 367 204 b 332 130 248 72 199 72 b 160 72 117 92 117 158 z m 286 400 b 285 329 220 250 128 249 b 149 343 195 456 251 456 b 281 456 286 421 286 400 z"},"b":{"x_min":0,"x_max":430,"ha":430,"o":"m 99 680 l -12 160 b -16 142 -18 125 -18 111 b -18 25 48 -3 147 -3 b 326 -3 412 218 412 375 b 412 434 381 502 285 502 b 252 502 222 490 199 473 l 247 700 z m 300 368 b 300 296 250 68 168 68 b 138 68 124 75 124 105 b 124 118 127 136 132 160 l 189 428 b 198 435 233 442 243 442 b 268 442 300 428 300 368 z"},"%":{"x_min":0,"x_max":644,"ha":644,"o":"m 579 750 l 507 750 l 121 0 l 193 0 z m 269 702 b 169 702 107 606 107 488 b 107 416 125 374 203 374 b 299 374 351 504 351 589 b 351 662 327 702 269 702 z m 181 519 b 189 616 238 667 266 667 b 287 667 291 639 291 604 b 291 503 259 411 206 411 b 184 411 179 444 179 476 b 179 492 180 507 181 519 z m 517 328 b 417 328 355 232 355 114 b 355 42 373 0 451 0 b 567 0 609 130 609 215 b 609 288 575 328 517 328 z m 424 145 b 432 242 475 291 503 291 b 524 291 531 258 531 223 b 531 122 502 37 449 37 b 427 37 422 70 422 102 b 422 118 423 133 424 145 z"},"m":{"x_min":0,"x_max":744,"ha":744,"o":"m 683 351 b 684 359 685 366 685 374 b 685 442 625 500 570 500 b 521 500 468 469 424 434 b 402 473 362 500 325 500 b 282 500 236 476 196 447 l 207 500 l 63 500 l -43 0 l 101 0 l 187 404 b 207 418 224 425 248 425 b 275 425 294 402 294 366 b 294 358 293 349 291 340 l 219 0 l 364 0 l 438 351 b 439 358 440 365 440 372 b 440 384 438 395 435 407 b 454 419 471 425 493 425 b 520 425 539 402 539 366 b 539 358 538 349 536 340 l 498 160 b 494 141 492 125 492 109 b 492 34 538 0 616 0 b 694 0 784 130 830 184 l 783 184 b 760 141 718 82 678 82 b 646 82 637 100 637 123 b 637 135 639 148 642 160 z"},"#":{"x_min":0,"x_max":659,"ha":659,"o":"m 307 -27 l 364 -27 l 394 111 l 504 111 l 524 213 l 417 213 l 442 326 l 548 326 l 568 428 l 464 428 l 529 718 l 441 718 l 389 428 l 284 428 l 349 718 l 261 718 l 209 428 l 110 428 l 89 326 l 191 326 l 170 213 l 66 213 l 45 111 l 152 111 l 127 -27 l 184 -27 l 214 111 l 332 111 z m 262 326 l 371 326 l 350 213 l 237 213 z"},",":{"x_min":0,"x_max":216,"ha":216,"o":"m 24 75 b 24 42 45 19 71 2 b 80 -4 84 -11 84 -18 b 84 -55 32 -73 32 -109 b 32 -115 34 -121 41 -126 b 123 -69 171 19 171 79 b 171 123 147 155 103 155 b 59 155 24 119 24 75 z"},"n":{"x_min":0,"x_max":503,"ha":503,"o":"m 446 351 b 448 359 448 367 448 375 b 448 442 387 500 333 500 b 289 500 243 476 202 446 l 214 500 l 70 500 l -36 0 l 108 0 l 193 404 b 214 418 232 425 256 425 b 283 425 302 402 302 366 b 302 358 301 349 299 340 l 261 160 b 257 141 255 125 255 109 b 255 34 301 0 379 0 b 457 0 533 108 579 154 l 545 154 b 505 122 490 91 450 91 b 411 91 400 106 400 128 b 400 138 402 149 405 160 z"},"h":{"x_min":0,"x_max":515,"ha":515,"o":"m 438 351 b 440 359 440 367 440 375 b 440 442 379 500 325 500 b 282 500 236 476 195 447 l 249 700 l 101 680 l -44 0 l 100 0 l 186 404 b 206 418 224 425 248 425 b 275 425 294 402 294 366 b 294 358 293 349 291 340 l 253 160 b 249 141 247 125 247 109 b 247 34 293 0 371 0 b 449 0 562 133 608 179 l 574 179 b 534 147 482 91 442 91 b 403 91 392 106 392 128 b 392 137 394 148 397 160 z"},"z":{"x_min":0,"x_max":383,"ha":383,"o":"m 246 62 b 246 44 222 40 191 40 b 167 40 141 41 118 42 l 381 500 l 112 500 b 32 500 -5 458 -5 407 b -5 375 14 349 42 349 b 74 349 105 362 105 409 b 105 426 97 438 88 438 b 88 456 112 460 143 460 b 166 460 193 459 216 458 l -47 0 l 222 0 b 302 0 339 42 339 93 b 339 125 320 151 292 151 b 260 151 228 137 228 90 b 228 73 237 62 246 62 z"},"B":{"x_min":0,"x_max":635,"ha":635,"o":"m 230 636 l 94 0 l 238 0 l 320 383 b 338 385 357 386 370 386 b 436 386 461 328 461 263 b 461 178 417 79 362 79 b 348 79 314 84 295 115 b 286 90 282 69 282 52 b 282 -11 340 -17 400 -17 b 510 -17 599 140 599 269 b 599 347 566 416 484 432 b 548 469 584 531 584 590 b 584 672 514 750 357 750 b 190 750 6 623 6 490 b 6 418 44 393 113 393 b 112 402 99 410 99 461 b 99 613 207 704 369 704 b 447 704 479 655 479 599 b 479 523 420 434 337 434 l 330 434 l 378 656 z"},"K":{"x_min":0,"x_max":601,"ha":601,"o":"m 397 748 b 384 749 371 750 357 750 b 190 750 6 623 6 490 b 6 418 44 393 113 393 b 112 402 99 410 99 461 b 99 567 151 643 239 680 l 94 0 l 238 0 l 318 376 b 331 379 342 380 351 380 b 396 380 411 353 411 313 b 411 237 358 116 358 50 b 358 17 371 -17 436 -17 b 460 -17 493 -12 535 0 b 511 9 496 36 496 66 b 496 129 545 237 545 319 b 545 380 518 426 421 426 b 410 426 398 426 385 424 l 664 745 l 559 745 b 559 746 394 527 331 442 z"},"R":{"x_min":0,"x_max":601,"ha":601,"o":"m 230 636 l 94 0 l 238 0 l 318 377 b 330 380 341 381 350 381 b 395 381 410 353 410 313 b 410 237 358 116 358 50 b 358 17 371 -17 436 -17 b 460 -17 493 -12 535 0 b 511 9 496 36 496 66 b 496 128 545 237 545 319 b 545 366 528 404 476 419 b 545 459 584 529 584 590 b 584 672 515 750 357 750 b 190 750 6 623 6 490 b 6 418 44 393 113 393 b 112 402 99 410 99 461 b 99 613 207 704 369 704 b 447 704 479 655 479 599 b 479 521 420 424 337 424 l 328 424 l 378 656 z"},"T":{"x_min":0,"x_max":481,"ha":481,"o":"m 624 618 b 704 618 705 705 719 747 b 692 736 650 732 604 732 b 506 732 388 749 347 749 b 100 749 6 622 6 489 b 6 417 44 392 113 392 b 112 401 99 409 99 460 b 99 629 187 661 299 661 l 157 0 l 301 0 l 439 644 b 506 632 571 618 624 618 z"},"P":{"x_min":0,"x_max":573,"ha":573,"o":"m 230 636 l 94 0 l 238 0 l 299 285 l 304 285 b 484 285 593 426 593 553 b 593 656 521 750 357 750 b 190 750 6 623 6 490 b 6 418 44 393 113 393 b 112 402 99 410 99 461 b 99 613 196 704 358 704 b 446 704 482 642 482 568 b 482 462 407 330 307 322 l 378 656 z"},"|":{"x_min":0,"x_max":532,"ha":532,"o":"m 312 751 l 219 751 l 219 -250 l 312 -250 z"},"t":{"x_min":0,"x_max":292,"ha":292,"o":"m 106 638 l 76 500 l 43 500 l 35 460 l 68 460 b 51 374 -1 162 -1 109 b -1 34 46 0 123 0 b 201 0 314 133 360 179 l 326 179 b 286 147 234 91 194 91 b 154 91 144 106 144 129 b 144 134 143 144 212 460 l 272 460 l 280 500 l 220 500 b 239 590 254 658 254 658 z"},"M":{"x_min":0,"x_max":785,"ha":785,"o":"m 650 0 l 807 736 l 650 736 l 431 160 l 431 736 b 409 743 385 746 362 746 b 206 746 37 612 37 490 b 37 418 75 393 144 393 b 143 402 130 410 130 461 b 130 576 191 655 291 687 l 67 0 l 147 0 l 279 427 l 279 0 l 416 0 l 606 473 l 506 0 z"},"g":{"x_min":0,"x_max":495,"ha":495,"o":"m 312 500 l 301 452 b 287 479 258 499 222 499 b 28 499 -25 270 -25 132 b -25 73 3 -8 99 -8 b 145 -8 184 13 214 40 l 204 -5 b 114 -38 41 -71 41 -153 b 41 -218 92 -250 153 -250 b 219 -250 303 -223 333 -80 l 350 0 b 429 29 499 66 512 131 l 516 210 b 483 135 426 90 362 57 l 456 500 z m 233 443 b 250 443 274 430 290 400 l 231 123 b 212 103 191 88 171 88 b 127 88 98 103 98 151 b 98 237 136 443 233 443 z m 96 -139 b 96 -100 137 -75 194 -53 l 188 -83 b 176 -142 150 -172 130 -172 b 108 -172 96 -153 96 -139 z"},"j":{"x_min":0,"x_max":221,"ha":221,"o":"m 54 500 l -51 8 b -145 -20 -223 -50 -223 -142 b -223 -207 -166 -250 -105 -250 b -39 -250 45 -223 75 -80 l 95 16 b 173 38 241 68 254 131 l 258 210 b 224 136 167 92 105 62 l 198 500 z m 65 634 b 65 590 100 555 144 555 b 188 555 224 590 224 634 b 224 678 188 714 144 714 b 100 714 65 678 65 634 z m -168 -128 b -168 -74 -120 -46 -58 -25 l -70 -83 b -82 -142 -108 -161 -128 -161 b -150 -161 -168 -142 -168 -128 z"},"i":{"x_min":0,"x_max":269,"ha":269,"o":"m 64 500 l -8 160 b -12 141 -14 124 -14 109 b -14 34 34 0 111 0 b 189 0 302 133 348 179 l 314 179 b 274 147 222 91 182 91 b 142 91 132 107 132 129 b 132 138 134 149 136 160 l 208 500 z m 83 632 b 83 588 118 553 162 553 b 206 553 242 588 242 632 b 242 676 206 712 162 712 b 118 712 83 676 83 632 z"},"y":{"x_min":0,"x_max":510,"ha":510,"o":"m 336 500 l 257 130 b 231 108 204 91 182 91 b 142 91 132 107 132 129 b 132 138 134 149 136 160 l 208 500 l 64 500 l -8 160 b -12 141 -14 124 -14 109 b -14 34 34 0 111 0 b 151 0 200 35 245 76 l 231 8 b 136 -20 59 -50 59 -142 b 59 -207 116 -250 177 -250 b 243 -250 327 -223 357 -80 l 377 16 b 455 38 523 68 536 131 l 540 210 b 506 136 449 92 387 62 l 480 500 z m 114 -128 b 114 -74 161 -46 224 -25 l 212 -83 b 200 -142 174 -161 154 -161 b 132 -161 114 -142 114 -128 z"},"@":{"x_min":0,"x_max":562,"ha":562,"o":"m 394 99 b 389 103 377 111 370 111 b 362 111 353 104 347 98 b 316 67 266 52 204 52 b 138 52 102 98 102 163 b 102 350 212 493 324 493 b 409 493 424 458 424 412 b 424 359 388 190 347 190 b 339 190 334 196 334 209 b 334 216 336 224 338 232 l 383 424 l 327 430 l 323 415 b 316 425 303 432 290 432 b 197 432 154 245 154 199 b 154 166 175 121 207 121 b 240 121 272 132 285 144 b 293 139 303 136 319 136 b 406 136 491 262 491 412 b 491 538 392 557 312 557 b 201 557 -8 435 -8 152 b -8 15 87 -38 173 -38 b 249 -38 349 -9 402 71 b 404 74 407 77 407 82 b 407 85 404 91 394 99 z m 270 185 b 265 182 260 180 255 180 b 223 180 219 189 219 212 b 219 265 248 390 294 390 b 300 390 309 389 315 383 l 273 216 b 270 208 270 201 270 195 z"},".":{"x_min":0,"x_max":263,"ha":263,"o":"m 31 75 b 31 31 66 -4 110 -4 b 154 -4 190 31 190 75 b 190 119 154 155 110 155 b 66 155 31 119 31 75 z"},"p":{"x_min":0,"x_max":455,"ha":455,"o":"m 63 500 l -96 -250 l 55 -214 l 107 31 b 137 12 168 1 201 1 b 303 1 389 74 420 289 b 424 315 426 338 426 359 b 426 462 377 499 273 499 b 248 499 224 492 203 481 l 207 500 z m 185 75 b 169 75 144 75 120 93 l 192 429 b 211 442 230 450 249 450 b 281 450 305 438 305 378 b 305 354 301 321 292 277 b 259 118 235 75 185 75 z"},"X":{"x_min":0,"x_max":620,"ha":620,"o":"m 552 0 l 458 454 l 626 745 l 556 745 l 440 540 l 397 748 b 384 749 371 750 357 750 b 190 750 6 623 6 490 b 6 418 44 393 113 393 b 112 402 99 410 99 461 b 99 571 155 649 248 683 l 322 332 l 134 0 l 195 0 l 340 250 l 393 0 z"},"*":{"x_min":0,"x_max":515,"ha":515,"o":"m 223 752 l 223 617 l 116 679 l 86 627 l 195 564 l 86 501 l 116 449 l 223 511 l 223 376 l 287 376 l 287 511 l 394 449 l 424 501 l 315 564 l 424 627 l 394 679 l 287 617 l 287 752 z"},"Y":{"x_min":0,"x_max":620,"ha":620,"o":"m 438 0 l 504 308 l 698 745 l 632 745 l 484 390 l 397 748 b 384 749 371 750 357 750 b 190 750 6 623 6 490 b 6 418 44 393 113 393 b 112 402 99 410 99 461 b 99 571 155 649 248 683 l 344 308 l 278 0 z"},"c":{"x_min":0,"x_max":360,"ha":360,"o":"m 292 401 b 305 405 315 407 324 407 b 336 407 344 404 349 401 b 353 414 354 423 354 434 b 354 489 298 503 244 503 b 50 503 -13 310 -13 164 b -13 46 41 0 124 0 b 301 0 355 125 403 179 l 369 179 b 323 127 266 85 195 85 b 134 85 122 133 122 192 b 122 300 176 463 260 463 b 282 463 297 453 297 429 b 297 421 295 412 292 401 z"},"!":{"x_min":0,"x_max":224,"ha":224,"o":"m 150 231 l 280 700 l 136 700 l 65 231 z m 160 80 b 160 124 125 159 81 159 b 37 159 1 124 1 80 b 1 36 37 0 81 0 b 125 0 160 36 160 80 z"},"/":{"x_min":0,"x_max":311,"ha":311,"o":"m 295 750 l 223 750 l 11 -250 l 83 -250 z"},"[":{"x_min":0,"x_max":400,"ha":400,"o":"m 182 -188 l 61 -188 l 247 689 l 368 689 l 381 750 l 188 750 l -24 -250 l 169 -250 z"},"6":{"x_min":0,"x_max":497,"ha":497,"o":"m 225 305 b 248 352 276 381 313 381 b 356 381 366 325 366 284 b 366 177 297 61 233 61 b 184 61 150 79 150 180 b 150 202 152 227 155 258 b 197 674 340 690 366 690 b 395 690 416 663 416 636 b 416 623 411 610 400 600 b 461 603 489 634 489 668 b 489 707 449 750 374 750 b 152 750 37 531 17 230 b 16 217 16 205 16 193 b 16 87 51 -5 211 -5 b 357 -5 481 127 481 298 b 481 376 441 463 346 463 b 270 463 205 421 205 363 b 205 345 211 325 225 305 z"},"r":{"x_min":0,"x_max":393,"ha":393,"o":"m 74 500 l -32 0 l 112 0 l 195 392 b 218 413 234 424 264 424 b 294 424 266 358 322 358 b 371 358 397 401 397 436 b 397 474 370 500 325 500 b 283 500 243 478 207 450 l 218 500 z"},"2":{"x_min":0,"x_max":492,"ha":492,"o":"m 286 114 b 206 118 149 132 106 132 b 189 267 462 365 462 588 b 462 685 409 749 272 749 b 121 749 66 670 66 602 b 66 544 97 512 137 512 b 161 512 188 523 214 546 b 186 554 176 591 176 614 b 176 664 190 695 257 695 b 286 695 318 662 318 613 b 318 347 -12 248 -12 29 b -12 19 -11 8 -9 -3 b 11 4 47 25 70 25 b 172 25 209 -11 318 -11 b 417 -11 437 40 437 139 b 437 153 437 167 436 183 b 380 130 359 114 286 114 z"},"{":{"x_min":0,"x_max":352,"ha":352,"o":"m 383 750 l 340 750 b 221 750 180 625 180 549 b 180 498 187 445 187 390 b 187 343 184 279 120 279 b 111 279 101 280 89 282 l 77 225 b 90 227 100 228 109 228 b 141 228 150 215 150 197 b 150 191 149 183 147 175 b 121 61 30 -46 30 -140 b 30 -163 35 -186 49 -207 b 75 -248 103 -249 163 -249 l 172 -249 l 181 -204 b 119 -204 96 -172 96 -124 b 96 -24 215 129 215 218 b 215 234 210 246 203 254 b 227 274 241 307 243 365 l 237 536 b 238 590 247 634 283 674 b 305 698 333 700 374 700 z"},"9":{"x_min":0,"x_max":489,"ha":489,"o":"m 288 424 b 270 377 241 364 204 364 b 158 364 148 425 148 467 b 148 571 210 684 275 684 b 328 684 363 663 363 539 b 363 523 362 506 361 487 b 330 71 177 55 151 55 b 121 55 100 83 100 111 b 100 123 104 135 114 145 b 54 142 27 112 27 80 b 27 40 70 -5 147 -5 b 358 -5 486 214 486 515 b 486 641 448 750 293 750 b 148 750 34 623 34 457 b 34 377 75 282 175 282 b 249 282 309 324 309 374 b 309 390 302 407 288 424 z"}," ":{"x_min":0,"x_max":217,"ha":217,"o":""},"I":{"x_min":0,"x_max":375,"ha":375,"o":"m 397 748 b 384 749 371 750 357 750 b 190 750 6 623 6 490 b 6 418 44 393 113 393 b 112 402 99 410 99 461 b 99 568 152 643 239 679 l 94 0 l 238 0 z"},"H":{"x_min":0,"x_max":631,"ha":631,"o":"m 397 748 b 384 749 371 750 357 750 b 190 750 6 623 6 490 b 6 418 44 393 113 393 b 112 402 99 410 99 461 b 99 567 151 643 239 680 l 94 0 l 238 0 l 318 377 b 334 379 353 381 372 381 b 393 381 414 379 436 371 l 357 0 l 501 0 l 660 748 l 516 748 l 454 456 b 447 457 439 457 432 457 b 400 457 366 450 332 444 z"},"4":{"x_min":0,"x_max":476,"ha":476,"o":"m 252 275 l 193 0 l 337 0 l 395 275 l 455 275 l 475 349 l 411 349 l 497 750 l 349 730 l 268 349 l 112 349 b 164 444 258 528 258 655 b 258 718 205 750 147 750 b 152 730 154 710 154 690 b 154 544 44 385 8 275 z"},"~":{"x_min":0,"x_max":431,"ha":431,"o":"m 444 670 b 430 655 406 647 381 647 b 323 647 289 680 216 680 b 140 680 81 646 49 582 l 55 580 b 73 597 95 606 121 606 b 176 606 223 569 289 569 b 365 569 439 622 450 669 z"},"D":{"x_min":0,"x_max":663,"ha":663,"o":"m 230 636 l 94 0 l 238 0 l 246 40 b 289 3 330 -13 368 -13 b 516 -13 645 222 645 480 b 645 621 588 750 357 750 b 190 750 6 623 6 490 b 6 418 44 393 113 393 b 112 402 99 410 99 461 b 99 613 207 704 369 704 b 484 704 507 633 507 508 b 507 316 434 75 315 75 b 296 75 277 81 258 95 l 378 656 z"},"^":{"x_min":0,"x_max":421,"ha":421,"o":"m 343 561 l 283 750 l 262 750 l 50 561 l 94 561 l 251 641 l 311 561 z"},"0":{"x_min":0,"x_max":546,"ha":546,"o":"m 377 750 b 162 750 30 527 30 254 b 30 88 65 -9 237 -9 b 442 -9 555 290 555 489 b 555 657 502 750 377 750 z m 188 325 b 205 550 310 698 370 698 b 417 698 424 635 424 553 b 424 321 356 75 242 75 b 194 75 183 152 183 226 b 183 263 186 298 188 325 z"},"F":{"x_min":0,"x_max":495,"ha":495,"o":"m 322 419 l 371 649 b 418 639 465 630 511 630 b 589 647 592 708 606 750 b 578 741 547 738 516 738 b 453 738 390 750 350 750 b 103 750 9 623 9 490 b 9 418 47 393 116 393 b 115 402 102 410 102 461 b 102 620 155 664 232 668 l 88 0 l 232 0 l 306 345 l 456 345 l 476 419 z"},"`":{"x_min":0,"x_max":201,"ha":201,"o":"m 83 561 l 158 561 l 129 750 l 24 750 z"},"k":{"x_min":0,"x_max":489,"ha":489,"o":"m 370 500 b 370 501 252 410 177 350 l 252 700 l 104 680 l -41 0 l 103 0 l 160 269 b 181 283 199 291 224 291 b 251 291 270 268 270 232 b 270 224 269 215 267 206 l 256 160 b 251 141 249 123 249 107 b 249 34 297 0 374 0 b 452 0 548 133 594 179 l 560 179 b 520 147 485 91 445 91 b 406 91 395 106 395 128 b 395 138 397 149 400 160 l 414 217 b 416 225 417 234 417 242 b 417 308 355 366 301 366 b 292 366 284 365 275 363 l 478 500 z"},"u":{"x_min":0,"x_max":520,"ha":520,"o":"m 331 500 l 259 160 b 256 148 254 137 253 127 b 228 107 203 91 182 91 b 142 91 132 107 132 129 b 132 138 134 149 136 160 l 208 500 l 64 500 l -8 160 b -12 141 -14 124 -14 109 b -14 34 34 0 111 0 b 154 0 208 40 255 84 b 264 26 310 0 378 0 b 456 0 569 133 615 179 l 581 179 b 541 147 489 91 449 91 b 409 91 399 107 399 129 b 399 138 401 149 403 160 l 475 500 z"},"]":{"x_min":0,"x_max":400,"ha":400,"o":"m 175 688 l 296 688 l 110 -189 l -11 -189 l -24 -250 l 169 -250 l 381 750 l 188 750 z"},"U":{"x_min":0,"x_max":678,"ha":678,"o":"m 557 748 l 429 152 b 403 105 372 75 332 75 b 277 75 253 151 253 237 b 253 394 347 633 432 745 b 414 750 391 750 357 750 b 190 750 6 623 6 490 b 6 418 44 393 113 393 b 112 402 99 410 99 461 b 99 585 170 668 285 695 b 178 588 126 349 126 213 b 126 52 196 1 311 1 b 341 1 375 22 408 52 l 397 0 l 541 0 l 700 748 z"},"o":{"x_min":0,"x_max":418,"ha":418,"o":"m 256 510 b 118 510 -7 404 -7 158 b -7 39 39 -6 146 -6 b 246 -6 355 93 374 294 b 432 310 484 343 515 382 l 511 403 b 474 388 453 354 406 354 b 392 354 383 357 377 363 b 375 436 351 510 256 510 z m 193 91 b 154 91 126 107 126 167 b 126 247 166 451 260 451 b 288 451 299 432 302 399 b 275 389 258 358 258 329 b 258 305 271 284 300 284 b 288 187 254 91 193 91 z"},"N":{"x_min":0,"x_max":702,"ha":702,"o":"m 580 748 l 447 122 b 440 146 437 185 437 231 b 437 328 448 459 448 564 b 448 707 441 750 357 750 b 190 750 6 623 6 490 b 6 418 44 393 113 393 b 112 402 99 410 99 461 b 99 567 151 643 239 680 l 94 0 l 238 0 l 368 612 b 370 584 370 554 370 523 b 370 419 363 302 363 204 b 363 88 374 0 421 0 l 565 0 l 724 748 z"},"+":{"x_min":0,"x_max":515,"ha":515,"o":"m 345 439 l 232 439 l 205 317 l 77 317 l 53 205 l 181 205 l 154 82 l 267 82 l 294 205 l 422 205 l 445 317 l 318 317 z"},"G":{"x_min":0,"x_max":578,"ha":578,"o":"m 417 418 l 374 229 b 353 201 326 192 289 192 b 206 192 173 268 173 357 b 173 516 285 703 395 703 b 459 703 464 648 464 632 b 464 607 445 557 420 550 b 439 528 473 524 489 524 b 540 524 559 563 559 616 b 559 713 466 750 373 750 b 150 750 19 556 19 365 b 19 227 71 109 234 109 b 243 109 298 114 356 145 l 316 -34 b 293 -137 261 -157 216 -157 b 174 -157 153 -124 153 -89 b 153 -52 177 -13 223 -13 b 243 -13 258 -18 283 -39 b 287 -24 289 -10 289 1 b 289 65 231 68 191 68 b 112 68 69 -1 69 -69 b 69 -138 113 -207 208 -207 b 372 -207 431 -111 464 42 l 546 418 z"},"q":{"x_min":0,"x_max":476,"ha":476,"o":"m 325 500 l 319 472 b 303 496 270 499 241 499 b 102 499 -14 343 -14 110 b -14 37 30 4 97 4 b 154 4 204 54 245 122 l 166 -250 l 317 -214 l 469 500 z m 263 455 b 291 455 302 441 302 413 b 302 397 298 375 293 350 l 258 184 b 217 123 178 75 145 75 b 117 75 112 101 112 142 b 112 287 186 455 263 455 z"},"d":{"x_min":0,"x_max":510,"ha":510,"o":"m 355 680 l 311 474 b 293 489 268 499 244 499 b 44 499 -18 293 -18 121 b -18 62 10 -6 106 -6 b 167 -6 212 35 242 76 b 255 24 298 0 363 0 b 441 0 554 133 600 179 l 566 179 b 526 147 474 91 434 91 b 395 91 384 106 384 128 b 384 138 387 149 389 160 l 503 700 z m 252 443 b 266 443 285 439 301 425 l 245 160 b 242 148 240 137 239 127 b 220 99 198 77 175 77 b 150 77 117 88 117 148 b 117 284 177 443 252 443 z"},"1":{"x_min":0,"x_max":317,"ha":317,"o":"m 324 748 b 203 676 125 670 70 670 l 58 624 l 153 624 l 21 0 l 165 0 z"},"5":{"x_min":0,"x_max":517,"ha":517,"o":"m 500 749 b 439 725 389 717 338 717 b 283 717 228 726 158 734 l 76 335 b 114 359 171 391 226 391 b 301 391 335 322 335 260 b 335 158 299 50 216 50 b 171 50 126 69 126 128 b 126 197 163 223 216 230 b 208 266 186 281 141 281 b 85 281 15 239 15 145 b 15 10 110 -5 204 -5 b 387 -5 481 131 481 266 b 481 381 426 475 304 475 b 268 475 226 466 180 444 l 220 625 b 265 620 329 600 392 600 b 468 600 502 649 502 716 b 502 727 501 738 500 749 z"}}}
